<svg width="0" height="0" class="hidden"><symbol viewBox="0 0 22 22" fill="none" stroke-width="1.5" stroke-linecap="round" stroke-linejoin="round" xmlns="http://www.w3.org/2000/svg" id="arrow"><g id="IONIcon/A/arrow/back/outline"><path id="Vector" d="M10.4844 17.1875L4.29688 11L10.4844 4.8125"></path><path id="Vector_2" d="M5.15625 11H17.7031"></path></g></symbol><symbol viewBox="0 0 18 20" fill="none" xmlns="http://www.w3.org/2000/svg" id="user"><path d="M9 11C11.7614 11 14 8.76142 14 6C14 3.23858 11.7614 1 9 1C6.23858 1 4 3.23858 4 6C4 8.76142 6.23858 11 9 11Z" stroke="currentColor" stroke-linecap="round" stroke-linejoin="round"></path><path d="M17 19C17 16.8783 16.1571 14.8434 14.6569 13.3431C13.1566 11.8429 11.1217 11 9 11C6.87827 11 4.84344 11.8429 3.34315 13.3431C1.84285 14.8434 1 16.8783 1 19" stroke="currentColor" stroke-linecap="round" stroke-linejoin="round"></path></symbol></svg>